<?xml version="1.0" encoding="UTF-8" standalone="no"?>
<svg
   xmlns:dc="http://purl.org/dc/elements/1.1/"
   xmlns:cc="http://creativecommons.org/ns#"
   xmlns:rdf="http://www.w3.org/1999/02/22-rdf-syntax-ns#"
   xmlns:svg="http://www.w3.org/2000/svg"
   xmlns="http://www.w3.org/2000/svg"
   xmlns:sodipodi="http://sodipodi.sourceforge.net/DTD/sodipodi-0.dtd"
   xmlns:inkscape="http://www.inkscape.org/namespaces/inkscape"
   width="190.76459mm"
   height="190.76459mm"
   viewBox="0 0 190.76459 190.76459"
   version="1.1"
   id="svg8"
   inkscape:version="1.0.2 (1.0.2+r75+1)"
   sodipodi:docname="fav-icon.svg">
  <defs
     id="defs2">
    <inkscape:path-effect
       effect="spiro"
       id="path-effect897"
       is_visible="true"
       lpeversion="1" />
    <inkscape:path-effect
       effect="spiro"
       id="path-effect893"
       is_visible="true"
       lpeversion="1" />
  </defs>
  <sodipodi:namedview
     id="base"
     pagecolor="#ffffff"
     bordercolor="#666666"
     borderopacity="1.0"
     inkscape:pageopacity="0.0"
     inkscape:pageshadow="2"
     inkscape:zoom="0.49497475"
     inkscape:cx="673.36486"
     inkscape:cy="362.33831"
     inkscape:document-units="mm"
     inkscape:current-layer="layer1"
     inkscape:document-rotation="0"
     showgrid="true"
     inkscape:window-width="1366"
     inkscape:window-height="708"
     inkscape:window-x="0"
     inkscape:window-y="28"
     inkscape:window-maximized="1">
    <inkscape:grid
       type="xygrid"
       id="grid833"
       originx="127.1323"
       originy="-15.742709" />
  </sodipodi:namedview>
  <metadata
     id="metadata5">
    <rdf:RDF>
      <cc:Work
         rdf:about="">
        <dc:format>image/svg+xml</dc:format>
        <dc:type
           rdf:resource="http://purl.org/dc/dcmitype/StillImage" />
        <dc:title />
      </cc:Work>
    </rdf:RDF>
  </metadata>
  <g
     inkscape:label="Layer 1"
     inkscape:groupmode="layer"
     id="layer1"
     transform="translate(127.13229,-15.742708)">
    <path
       id="path887"
       style="fill:#8effc1;stroke:none;stroke-width:0.999999px;stroke-linecap:butt;stroke-linejoin:miter;stroke-opacity:1;fill-opacity:1"
       d="M 360.5 60.5 C 281.96018 60.5 203.90322 92.831148 148.36719 148.36719 C 92.831148 203.90322 60.5 281.96018 60.5 360.5 C 60.5 439.03982 92.831148 517.09678 148.36719 572.63281 C 203.90322 628.16885 281.96018 660.5 360.5 660.5 C 439.03981 660.5 517.09678 628.16885 572.63281 572.63281 C 628.16885 517.09678 660.5 439.03982 660.5 360.5 C 660.5 336.51127 657.47415 312.57055 651.69922 289.30078 L 599.68359 341.31641 C 600.21532 347.69463 600.5 354.09455 600.5 360.5 C 600.5 423.33185 574.63391 485.77625 530.20508 530.20508 C 485.77625 574.63391 423.33185 600.5 360.5 600.5 C 297.66815 600.5 235.22375 574.63391 190.79492 530.20508 C 146.36609 485.77625 120.5 423.33185 120.5 360.5 C 120.5 297.66815 146.36609 235.22375 190.79492 190.79492 C 235.22375 146.36609 297.66815 120.5 360.5 120.5 C 418.61281 120.5 476.38187 142.6403 519.88477 181.11523 L 562.38086 138.61914 C 507.71239 89.069966 434.32234 60.5 360.5 60.5 z M 620.5 160.5 L 460.5 320.5 L 420.5 360.5 L 380.5 400.5 L 340.5 440.5 L 220.5 320.5 L 180.5 360.5 L 220.5 400.5 L 260.5 440.5 L 300.5 480.5 L 340.5 520.5 L 380.5 480.5 L 660.5 200.5 L 620.5 160.5 z "
       transform="matrix(0.26458333,0,0,0.26458333,-127.13229,15.742708)" />
  </g>
</svg>
