<?xml version="1.0" encoding="UTF-8" standalone="no"?>
<svg
   xmlns:dc="http://purl.org/dc/elements/1.1/"
   xmlns:cc="http://creativecommons.org/ns#"
   xmlns:rdf="http://www.w3.org/1999/02/22-rdf-syntax-ns#"
   xmlns:svg="http://www.w3.org/2000/svg"
   xmlns="http://www.w3.org/2000/svg"
   xmlns:sodipodi="http://sodipodi.sourceforge.net/DTD/sodipodi-0.dtd"
   xmlns:inkscape="http://www.inkscape.org/namespaces/inkscape"
   width="190.76459mm"
   height="190.76459mm"
   viewBox="0 0 190.76459 190.76459"
   version="1.1"
   id="svg8"
   inkscape:version="1.0.2 (1.0.2+r75+1)"
   sodipodi:docname="fav-icon.svg">
  <defs
     id="defs2">
    <inkscape:path-effect
       effect="spiro"
       id="path-effect836"
       is_visible="true"
       lpeversion="1" />
    <inkscape:path-effect
       effect="spiro"
       id="path-effect897"
       is_visible="true"
       lpeversion="1" />
    <inkscape:path-effect
       effect="spiro"
       id="path-effect893"
       is_visible="true"
       lpeversion="1" />
  </defs>
  <sodipodi:namedview
     id="base"
     pagecolor="#ffffff"
     bordercolor="#666666"
     borderopacity="1.0"
     inkscape:pageopacity="0.0"
     inkscape:pageshadow="2"
     inkscape:zoom="0.35"
     inkscape:cx="909.58784"
     inkscape:cy="370.39529"
     inkscape:document-units="mm"
     inkscape:current-layer="layer1"
     inkscape:document-rotation="0"
     showgrid="true"
     inkscape:window-width="1366"
     inkscape:window-height="708"
     inkscape:window-x="0"
     inkscape:window-y="28"
     inkscape:window-maximized="1">
    <inkscape:grid
       type="xygrid"
       id="grid833"
       originx="127.1323"
       originy="-15.742709" />
  </sodipodi:namedview>
  <metadata
     id="metadata5">
    <rdf:RDF>
      <cc:Work
         rdf:about="">
        <dc:format>image/svg+xml</dc:format>
        <dc:type
           rdf:resource="http://purl.org/dc/dcmitype/StillImage" />
        <dc:title />
      </cc:Work>
    </rdf:RDF>
  </metadata>
  <g
     inkscape:label="Layer 1"
     inkscape:groupmode="layer"
     id="layer1"
     transform="translate(127.13229,-15.742708)">
    <path
       id="path887"
       style="fill:#8effc1;stroke:none;stroke-width:0.999999px;stroke-linecap:butt;stroke-linejoin:miter;stroke-opacity:1;fill-opacity:1"
       d="M 360.5 60.5 C 340.86505 60.5 321.25948 62.521053 302.0293 66.419922 C 299.62552 66.907271 297.22734 67.422988 294.83594 67.96875 C 290.05377 69.060182 285.29687 70.268163 280.57227 71.589844 C 278.20965 72.250758 275.85402 72.940547 273.50781 73.658203 C 268.81603 75.093384 264.15715 76.642034 259.53906 78.300781 C 254.92039 79.959738 250.34083 81.729299 245.80664 83.607422 C 243.53955 84.546484 241.28497 85.512842 239.04102 86.505859 C 234.5531 88.491894 230.11191 90.584687 225.72461 92.783203 C 223.53095 93.882449 221.35008 95.008625 219.18359 96.160156 C 214.85116 98.462997 210.57313 100.87032 206.35742 103.37891 C 202.14123 105.88779 197.98711 108.49877 193.89844 111.20898 C 183.67675 117.98453 173.86951 125.38202 164.5625 133.36719 C 162.7011 134.96422 160.85984 136.58477 159.03906 138.22852 C 155.3975 141.51601 151.83819 144.89619 148.36719 148.36719 C 144.89619 151.83819 141.51601 155.3975 138.22852 159.03906 C 136.58477 160.85984 134.96422 162.7011 133.36719 164.5625 C 125.38202 173.86951 117.98453 183.67675 111.20898 193.89844 C 108.49877 197.98711 105.88779 202.14123 103.37891 206.35742 C 100.87032 210.57313 98.462997 214.85116 96.160156 219.18359 C 96.159888 219.1841 96.160424 219.18504 96.160156 219.18555 C 92.705529 225.68498 89.484912 232.30914 86.505859 239.04102 C 85.512842 241.28497 84.546484 243.53955 83.607422 245.80664 C 81.729299 250.34083 79.959738 254.92039 78.300781 259.53906 C 77.471303 261.8484 76.670336 264.16766 75.896484 266.49609 C 75.122645 268.82454 74.375859 271.16161 73.658203 273.50781 C 72.222659 278.20078 70.900766 282.92765 69.693359 287.68359 C 69.089743 290.06128 68.514512 292.44453 67.96875 294.83594 C 63.056532 316.35908 60.5 338.41004 60.5 360.5 C 60.5 382.58932 63.056807 404.63955 67.96875 426.16211 C 67.968892 426.16273 67.968608 426.16344 67.96875 426.16406 C 69.605968 433.33762 71.505387 440.45226 73.658203 447.49023 C 73.658386 447.49083 73.65802 447.49159 73.658203 447.49219 C 75.093384 452.18397 76.642034 456.84285 78.300781 461.46094 C 79.959738 466.07961 81.729299 470.65917 83.607422 475.19336 C 84.546484 477.46045 85.512842 479.71503 86.505859 481.95898 C 89.484912 488.69086 92.705529 495.31502 96.160156 501.81445 C 96.160428 501.81496 96.159885 501.8159 96.160156 501.81641 C 98.462997 506.14884 100.87032 510.42687 103.37891 514.64258 C 105.88779 518.85877 108.49877 523.01289 111.20898 527.10156 C 117.98453 537.32325 125.38202 547.13049 133.36719 556.4375 C 134.96422 558.2989 136.58477 560.14016 138.22852 561.96094 C 141.51601 565.6025 144.89619 569.16181 148.36719 572.63281 C 151.83819 576.10381 155.3975 579.48399 159.03906 582.77148 C 160.85984 584.41523 162.7011 586.03578 164.5625 587.63281 C 173.86951 595.61798 183.67675 603.01547 193.89844 609.79102 C 197.98711 612.50123 202.14123 615.11221 206.35742 617.62109 C 210.57313 620.12968 214.85116 622.537 219.18359 624.83984 C 221.35057 625.99167 223.53045 627.11728 225.72461 628.2168 C 230.11191 630.41531 234.5531 632.50811 239.04102 634.49414 C 241.28497 635.48716 243.53955 636.45352 245.80664 637.39258 C 250.34083 639.2707 254.92039 641.04026 259.53906 642.69922 C 261.8484 643.5287 264.16766 644.32966 266.49609 645.10352 C 268.82454 645.87736 271.16161 646.62414 273.50781 647.3418 C 278.20078 648.77734 282.92765 650.09923 287.68359 651.30664 C 290.06128 651.91026 292.44453 652.48549 294.83594 653.03125 C 316.35908 657.94347 338.41004 660.5 360.5 660.5 C 394.86117 660.5 429.13025 654.31192 461.46094 642.69922 C 466.07961 641.04026 470.65917 639.2707 475.19336 637.39258 C 477.46045 636.45352 479.71503 635.48716 481.95898 634.49414 C 486.4469 632.50811 490.88809 630.41531 495.27539 628.2168 C 497.46955 627.11728 499.64943 625.99167 501.81641 624.83984 C 506.14884 622.537 510.42687 620.12968 514.64258 617.62109 C 518.85877 615.11221 523.01289 612.50123 527.10156 609.79102 C 537.32325 603.01547 547.13049 595.61798 556.4375 587.63281 C 558.2989 586.03578 560.14016 584.41523 561.96094 582.77148 C 565.6025 579.48399 569.16181 576.10381 572.63281 572.63281 C 576.10381 569.16181 579.48399 565.6025 582.77148 561.96094 C 586.05864 558.31975 589.25429 554.59588 592.35352 550.79492 C 592.35384 550.79453 592.35319 550.79336 592.35352 550.79297 C 598.55256 543.19025 604.37058 535.27892 609.79102 527.10156 C 612.50123 523.01289 615.11221 518.85877 617.62109 514.64258 C 620.12968 510.42687 622.537 506.14884 624.83984 501.81641 C 624.84012 501.8159 624.83957 501.81496 624.83984 501.81445 C 625.99139 499.64798 627.11754 497.46904 628.2168 495.27539 C 630.41531 490.88809 632.50811 486.4469 634.49414 481.95898 C 635.48716 479.71503 636.45352 477.46045 637.39258 475.19336 C 639.2707 470.65917 641.04026 466.07961 642.69922 461.46094 C 644.35797 456.84285 645.90662 452.18397 647.3418 447.49219 C 647.34198 447.49159 647.34161 447.49083 647.3418 447.49023 C 649.49461 440.45226 651.39403 433.33762 653.03125 426.16406 C 653.03139 426.16344 653.03111 426.16273 653.03125 426.16211 C 657.94319 404.63955 660.5 382.58932 660.5 360.5 C 660.5 358.31262 660.46598 356.12561 660.41602 353.93945 C 660.40552 353.48166 660.39744 353.02412 660.38477 352.56641 C 660.3262 350.44604 660.24381 348.32713 660.13867 346.20898 C 660.11887 345.81109 660.09566 345.41342 660.07422 345.01562 C 659.96989 343.075 659.84622 341.13518 659.70312 339.19727 C 659.67769 338.85364 659.65556 338.50954 659.62891 338.16602 C 659.47239 336.14371 659.28823 334.12396 659.08984 332.10547 C 659.02661 331.46356 658.96198 330.82116 658.89453 330.17969 C 658.69005 328.23082 658.46976 326.28422 658.22656 324.33984 C 658.15111 323.73773 658.06743 323.1368 657.98828 322.53516 C 657.79138 321.03567 657.58304 319.53734 657.36328 318.04102 C 657.25277 317.28982 657.14554 316.53744 657.0293 315.78711 C 657.02629 315.76765 657.0245 315.74798 657.02148 315.72852 C 656.75952 314.03712 656.47652 312.34881 656.18555 310.66211 C 656.01093 309.6513 655.83145 308.6418 655.64648 307.63281 C 655.42843 306.44185 655.19922 305.25273 654.9668 304.06445 C 654.69668 302.68508 654.41827 301.30718 654.12891 299.93164 C 653.9105 298.89242 653.68639 297.85526 653.45703 296.81836 C 653.22465 295.76863 652.99353 294.71912 652.75 293.67188 C 652.72997 293.58576 652.7076 293.50017 652.6875 293.41406 C 652.36724 292.04138 652.03664 290.67089 651.69727 289.30273 L 599.68359 341.31641 C 600.21532 347.69463 600.5 354.09455 600.5 360.5 C 600.5 423.33185 574.63391 485.77625 530.20508 530.20508 C 485.77625 574.63391 423.33185 600.5 360.5 600.5 C 297.66815 600.5 235.22375 574.63391 190.79492 530.20508 C 146.36609 485.77625 120.5 423.33185 120.5 360.5 C 120.5 297.66815 146.36609 235.22375 190.79492 190.79492 C 235.22375 146.36609 297.66815 120.5 360.5 120.5 C 418.61281 120.5 476.38187 142.6403 519.88477 181.11523 L 562.38086 138.61914 C 560.95442 137.32628 559.50824 136.05517 558.05664 134.79102 C 557.73241 134.50866 557.41336 134.22037 557.08789 133.93945 C 555.8573 132.87728 554.60934 131.83641 553.36133 130.79492 C 552.76226 130.295 552.16747 129.79005 551.56445 129.29492 C 550.4504 128.38018 549.32262 127.48228 548.19531 126.58398 C 547.45719 125.99583 546.72223 125.40332 545.97852 124.82227 C 544.83485 123.9287 543.68009 123.05052 542.52344 122.17383 C 541.8191 121.63999 541.11728 121.10372 540.4082 120.57617 C 539.20692 119.68238 537.99392 118.80337 536.7793 117.92773 C 536.06404 117.41213 535.3487 116.89599 534.62891 116.38672 C 533.45917 115.55905 532.28112 114.7425 531.09961 113.93164 C 530.31883 113.39584 529.53777 112.86045 528.75195 112.33203 C 527.5594 111.53005 526.3602 110.73801 525.15625 109.95312 C 524.39282 109.45547 523.6273 108.96145 522.85938 108.4707 C 521.6233 107.68071 520.38225 106.89894 519.13477 106.12695 C 518.38332 105.66197 517.62855 105.20256 516.87305 104.74414 C 515.62635 103.98762 514.37665 103.2366 513.11914 102.49805 C 512.28064 102.00563 511.43695 101.52149 510.59375 101.03711 C 509.40645 100.355 508.21791 99.675862 507.02148 99.009766 C 506.15906 98.529665 505.29089 98.059627 504.42383 97.587891 C 503.1767 96.909308 501.92838 96.231501 500.67188 95.570312 C 499.90798 95.168389 499.13837 94.778275 498.37109 94.382812 C 497.04023 93.696791 495.70996 93.010233 494.36914 92.34375 C 493.50948 91.916492 492.64294 91.503168 491.7793 91.083984 C 490.53914 90.481979 489.30091 89.876288 488.05273 89.291016 C 487.11371 88.850761 486.1661 88.428782 485.22266 87.998047 C 483.99474 87.437365 482.77036 86.868693 481.53516 86.324219 C 480.77413 85.988805 480.00591 85.67103 479.24219 85.341797 C 476.33308 84.087542 473.40543 82.876707 470.45898 81.712891 C 469.84602 81.47081 469.23756 81.216651 468.62305 80.978516 C 468.61267 80.974495 468.60217 80.970817 468.5918 80.966797 C 467.39159 80.501771 466.1825 80.061243 464.97656 79.611328 C 463.96294 79.233218 462.95309 78.845899 461.93555 78.478516 C 460.73115 78.043604 459.51831 77.630746 458.30859 77.210938 C 457.25952 76.846936 456.21309 76.475636 455.16016 76.123047 C 454.00532 75.736267 452.84488 75.369078 451.68555 74.996094 C 450.57794 74.639807 449.47094 74.279182 448.35938 73.935547 C 447.18892 73.57365 446.01256 73.228659 444.83789 72.880859 C 443.73779 72.555194 442.63881 72.227306 441.53516 71.914062 C 440.32831 71.571469 439.11718 71.245636 437.90625 70.917969 C 436.82136 70.624458 435.73647 70.330303 434.64844 70.048828 C 433.46437 69.742455 432.27747 69.448301 431.08984 69.15625 C 429.95116 68.876285 428.81172 68.59877 427.66992 68.332031 C 426.50124 68.058968 425.32999 67.79625 424.1582 67.537109 C 422.99134 67.279105 421.8241 67.027339 420.6543 66.783203 C 419.51488 66.545361 418.37448 66.314466 417.23242 66.089844 C 416.03209 65.853808 414.83003 65.625664 413.62695 65.404297 C 412.48976 65.195014 411.3524 64.989084 410.21289 64.792969 C 408.97414 64.579812 407.73349 64.377212 406.49219 64.179688 C 405.40249 64.006258 404.31224 63.835154 403.2207 63.673828 C 401.9254 63.482419 400.62778 63.30515 399.33008 63.130859 C 398.26169 62.987343 397.19294 62.842796 396.12305 62.710938 C 394.82287 62.550727 393.52096 62.408545 392.21875 62.265625 C 391.16163 62.14958 390.10522 62.028425 389.04688 61.923828 C 387.623 61.783134 386.19733 61.662849 384.77148 61.542969 C 383.84563 61.46511 382.92073 61.37959 381.99414 61.310547 C 380.42903 61.19395 378.86185 61.101099 377.29492 61.009766 C 376.47717 60.962091 375.65998 60.904043 374.8418 60.863281 C 373.28657 60.785814 371.73032 60.735981 370.17383 60.683594 C 369.3155 60.654701 368.45824 60.611075 367.59961 60.589844 C 365.23399 60.531356 362.86711 60.5 360.5 60.5 z M 600.41602 180.58398 L 460.5 320.5 L 420.5 360.5 L 380.5 400.5 L 340.5 440.5 L 220.5 320.5 L 180.5 360.5 L 220.5 400.5 L 260.5 440.5 L 300.5 480.5 L 340.5 520.5 L 380.5 480.5 L 630.52539 230.47461 C 622.10752 212.92898 612.02624 196.18804 600.41602 180.58398 z "
       transform="matrix(0.26458333,0,0,0.26458333,-127.13229,15.742708)" />
  </g>
</svg>
